<svg width="408" height="339" viewBox="0 0 408 339" fill="none" xmlns="http://www.w3.org/2000/svg">
<path d="M0.500006 11.9752L0.500005 11.9747C0.498587 10.4683 0.794063 8.97646 1.36954 7.58434C1.94502 6.19223 2.78923 4.92719 3.8539 3.86152C4.91857 2.79585 6.18281 1.95046 7.57438 1.37367C8.96596 0.796882 10.4576 0.499999 11.9639 0.5H395.474C398.518 0.5 401.437 1.70899 403.589 3.861C405.741 6.01301 406.95 8.93177 406.95 11.9752V282.854C406.95 285.897 405.741 288.816 403.589 290.968C401.437 293.12 398.518 294.329 395.474 294.329H252.786H252.399L252.302 294.704C248.035 311.247 254.206 322.408 261.445 329.407C265.056 332.898 268.93 335.353 271.897 336.935C272.917 337.478 273.831 337.919 274.592 338.264H141.467C154.8 330.727 159.451 320.118 160.706 311.248C161.358 306.634 161.092 302.498 160.663 299.515C160.448 298.024 160.193 296.818 159.99 295.984C159.889 295.567 159.801 295.242 159.738 295.021C159.706 294.91 159.681 294.825 159.663 294.767C159.654 294.738 159.647 294.715 159.642 294.7L159.637 294.682L159.635 294.677L159.635 294.676C159.635 294.675 159.634 294.675 159.159 294.829L159.634 294.675L159.522 294.329H159.159H11.9639C10.4576 294.329 8.96596 294.032 7.57438 293.455C6.18282 292.878 4.91857 292.033 3.8539 290.967C2.78924 289.902 1.94503 288.637 1.36954 287.244C0.794063 285.852 0.498587 284.36 0.500005 282.854L0.500006 11.9752Z" fill="#263238" stroke="white"/>
<path d="M208.836 266.524C211.305 270.056 210.589 273.691 208.439 275.841C206.29 277.99 202.654 278.706 199.123 276.237C198.921 276.095 198.745 275.919 198.603 275.717C196.139 272.186 196.855 268.552 199.003 266.405C201.151 264.257 204.784 263.54 208.316 266.004C208.517 266.147 208.693 266.323 208.836 266.524Z" fill="#455A64" stroke="white"/>
<path d="M12.73 14.1875H394.708C396.467 14.1875 397.892 15.6129 397.892 17.3713V240.946C397.892 242.704 396.467 244.13 394.708 244.13H12.73C10.9716 244.13 9.54617 242.704 9.54617 240.946V17.3713C9.54617 15.6129 10.9716 14.1875 12.73 14.1875Z" fill="#E0E0E0" stroke="white"/>
<path d="M9.54617 31.1083H397.892V244.13H9.54617V31.1083Z" fill="#FAFAFA" stroke="white"/>
<path d="M40.4838 22.5985C40.4838 23.1146 40.3308 23.6191 40.0441 24.0482C39.7573 24.4773 39.3498 24.8117 38.8731 25.0092C38.3963 25.2067 37.8716 25.2584 37.3655 25.1577C36.8593 25.057 36.3944 24.8085 36.0295 24.4436C35.6646 24.0787 35.4161 23.6137 35.3154 23.1076C35.2147 22.6014 35.2664 22.0768 35.4639 21.6C35.6614 21.1232 35.9958 20.7157 36.4249 20.429C36.854 20.1423 37.3585 19.9893 37.8745 19.9893C38.5665 19.9893 39.2302 20.2642 39.7196 20.7535C40.2089 21.2428 40.4838 21.9065 40.4838 22.5985Z" fill="#0D996A" stroke="white"/>
<path d="M21.6366 22.5985C21.6366 23.1146 21.4836 23.6191 21.1969 24.0482C20.9102 24.4773 20.5027 24.8117 20.0259 25.0092C19.5491 25.2067 19.0245 25.2584 18.5183 25.1577C18.0122 25.057 17.5472 24.8085 17.1823 24.4436C16.8174 24.0787 16.5689 23.6137 16.4682 23.1076C16.3675 22.6014 16.4192 22.0768 16.6167 21.6C16.8142 21.1232 17.1486 20.7157 17.5777 20.429C18.0068 20.1423 18.5113 19.9893 19.0274 19.9893C19.7194 19.9893 20.3831 20.2642 20.8724 20.7535C21.3617 21.2428 21.6366 21.9065 21.6366 22.5985Z" fill="#0D996A" stroke="white"/>
<path d="M30.6828 22.5985C30.6828 23.1146 30.5298 23.6191 30.2431 24.0482C29.9564 24.4773 29.5489 24.8117 29.0721 25.0092C28.5953 25.2067 28.0707 25.2584 27.5645 25.1577C27.0584 25.057 26.5934 24.8085 26.2285 24.4436C25.8636 24.0787 25.6151 23.6137 25.5144 23.1076C25.4138 22.6014 25.4654 22.0768 25.6629 21.6C25.8604 21.1232 26.1948 20.7157 26.6239 20.429C27.053 20.1423 27.5575 19.9893 28.0736 19.9893C28.7656 19.9893 29.4293 20.2642 29.9186 20.7535C30.4079 21.2428 30.6828 21.9065 30.6828 22.5985Z" fill="#0D996A" stroke="white"/>
<path d="M78.396 50C67.6247 50.0164 57.0999 53.2254 48.1518 59.2215C39.2037 65.2176 32.2339 73.7317 28.1233 83.6879C24.0126 93.644 22.9455 104.595 25.0569 115.158C27.1683 125.72 32.3634 135.419 39.9857 143.03C47.6079 150.641 57.3153 155.821 67.8808 157.917C78.4464 160.012 89.396 158.928 99.3459 154.802C109.296 150.677 117.799 143.694 123.782 134.737C129.764 125.78 132.957 115.25 132.957 104.479C132.935 90.0224 127.177 76.1658 116.948 65.9514C106.718 55.737 92.8522 50 78.396 50ZM78.396 142.949C70.7832 142.945 63.3426 140.683 57.0151 136.45C50.6876 132.218 45.7574 126.204 42.8479 119.169C39.9384 112.134 39.1803 104.394 40.6695 96.9285C42.1587 89.4629 45.8283 82.6064 51.2142 77.2263C56.6001 71.8461 63.4604 68.1839 70.9277 66.7027C78.395 65.2216 86.1338 65.988 93.1655 68.905C100.197 71.8221 106.206 76.7588 110.432 83.0908C114.658 89.4229 116.912 96.8659 116.907 104.479C116.88 114.68 112.813 124.456 105.595 131.666C98.3775 138.875 88.5977 142.932 78.396 142.949Z" fill="#0D996A" stroke="#263238" stroke-width="1.0631" stroke-miterlimit="10"/>
<g opacity="0.2">
<path d="M78.396 50C67.6247 50.0164 57.0999 53.2254 48.1518 59.2215C39.2037 65.2176 32.2339 73.7317 28.1233 83.6879C24.0126 93.644 22.9455 104.595 25.0569 115.158C27.1683 125.72 32.3634 135.419 39.9857 143.03C47.6079 150.641 57.3153 155.821 67.8808 157.917C78.4464 160.012 89.396 158.928 99.3459 154.802C109.296 150.677 117.799 143.694 123.782 134.737C129.764 125.78 132.957 115.25 132.957 104.479C132.935 90.0224 127.177 76.1658 116.948 65.9514C106.718 55.737 92.8522 50 78.396 50ZM78.396 142.949C70.7832 142.945 63.3426 140.683 57.0151 136.45C50.6876 132.218 45.7574 126.204 42.8479 119.169C39.9384 112.134 39.1803 104.394 40.6695 96.9285C42.1587 89.4629 45.8283 82.6064 51.2142 77.2263C56.6001 71.8461 63.4604 68.1839 70.9277 66.7027C78.395 65.2216 86.1338 65.988 93.1655 68.905C100.197 71.8221 106.206 76.7588 110.432 83.0908C114.658 89.4229 116.912 96.8659 116.907 104.479C116.88 114.68 112.813 124.456 105.595 131.666C98.3775 138.875 88.5977 142.932 78.396 142.949Z" fill="black"/>
</g>
<path d="M78.396 50C67.6247 50.0164 57.0999 53.2254 48.1518 59.2215C39.2037 65.2176 32.2339 73.7317 28.1233 83.6879C24.0126 93.644 22.9455 104.595 25.0569 115.158C27.1683 125.72 32.3634 135.419 39.9857 143.03C47.6079 150.641 57.3153 155.821 67.8808 157.917C78.4464 160.012 89.396 158.928 99.3459 154.802C109.296 150.677 117.799 143.694 123.782 134.737C129.764 125.78 132.957 115.25 132.957 104.479C132.935 90.0224 127.177 76.1658 116.948 65.9514C106.718 55.737 92.8522 50 78.396 50ZM78.396 142.949C70.7832 142.945 63.3426 140.683 57.0151 136.45C50.6876 132.218 45.7574 126.204 42.8479 119.169C39.9384 112.134 39.1803 104.394 40.6695 96.9285C42.1587 89.4629 45.8283 82.6064 51.2142 77.2263C56.6001 71.8461 63.4604 68.1839 70.9277 66.7027C78.395 65.2216 86.1338 65.988 93.1655 68.905C100.197 71.8221 106.206 76.7588 110.432 83.0908C114.658 89.4229 116.912 96.8659 116.907 104.479C116.88 114.68 112.813 124.456 105.595 131.666C98.3775 138.875 88.5977 142.932 78.396 142.949Z" stroke="#263238" stroke-width="1.0631" stroke-miterlimit="10"/>
<path d="M99.6372 54.2815L93.4323 69.0077C101.613 72.4677 108.345 78.6507 112.488 86.5081C116.63 94.3655 117.927 103.414 116.16 112.118C114.392 120.823 109.668 128.649 102.789 134.268C95.9098 139.887 87.299 142.954 78.4166 142.949V158.937C91.0008 158.966 103.207 154.636 112.959 146.682C122.711 138.729 129.409 127.644 131.912 115.311C134.415 102.978 132.569 90.1593 126.689 79.0333C120.809 67.9073 111.258 59.161 99.6579 54.2815H99.6372Z" fill="#263238" stroke="#263238" stroke-width="1.0631" stroke-linecap="round" stroke-linejoin="round"/>
<path d="M36.9061 176.827H122.637" stroke="#263238" stroke-width="1.0631" stroke-miterlimit="10"/>
<path d="M36.9061 185.99H122.637" stroke="#263238" stroke-width="1.0631" stroke-miterlimit="10"/>
<path d="M36.9061 195.152H122.637" stroke="#263238" stroke-width="1.0631" stroke-miterlimit="10"/>
<path d="M36.9061 204.336H122.637" stroke="#263238" stroke-width="1.0631" stroke-miterlimit="10"/>
<path d="M36.9061 213.498H122.637" stroke="#263238" stroke-width="1.0631" stroke-miterlimit="10"/>
<path d="M307.162 47H256.409V58.6888H307.162V47Z" fill="#0D996A"/>
<path d="M289.754 63.8879H256.409V75.5767H289.754V63.8879Z" fill="#0D996A"/>
<path d="M275.609 80.7754H256.409V92.4642H275.609V80.7754Z" fill="#0D996A"/>
<g opacity="0.2">
<path d="M307.162 47H256.409V58.6888H307.162V47Z" fill="black"/>
<path d="M289.754 63.8879H256.409V75.5767H289.754V63.8879Z" fill="black"/>
<path d="M275.609 80.7754H256.409V92.4642H275.609V80.7754Z" fill="black"/>
</g>
<path d="M168.277 176.437V211.629H185.487V176.437H168.277Z" fill="#0D996A"/>
<path d="M193.142 188.52V211.629H210.353V188.52H193.142Z" fill="#0D996A"/>
<path d="M217.99 198.309V211.611H235.2V198.309H217.99Z" fill="#0D996A"/>
<g opacity="0.2">
<path d="M168.277 176.437V211.629H185.487V176.437H168.277Z" fill="black"/>
<path d="M193.142 188.521V211.629H210.353V188.521H193.142Z" fill="black"/>
<path d="M217.99 198.309V211.611H235.2V198.309H217.99Z" fill="black"/>
</g>
<path d="M295.831 178.337H370.141" stroke="#263238" stroke-width="1.0631" stroke-miterlimit="10"/>
<path d="M295.831 186.279H370.141" stroke="#263238" stroke-width="1.0631" stroke-miterlimit="10"/>
<path d="M295.831 194.221H370.141" stroke="#263238" stroke-width="1.0631" stroke-miterlimit="10"/>
<path d="M295.831 202.181H370.141" stroke="#263238" stroke-width="1.0631" stroke-miterlimit="10"/>
<path d="M295.831 210.123H370.141" stroke="#263238" stroke-width="1.0631" stroke-miterlimit="10"/>
<path d="M166 48.739H240.31" stroke="#263238" stroke-width="1.0631" stroke-miterlimit="10"/>
<path d="M166 56.6809H240.31" stroke="#263238" stroke-width="1.0631" stroke-miterlimit="10"/>
<path d="M166 64.6228H240.31" stroke="#263238" stroke-width="1.0631" stroke-miterlimit="10"/>
<path d="M166 72.5647H240.31" stroke="#263238" stroke-width="1.0631" stroke-miterlimit="10"/>
<path d="M166 80.5245H240.31" stroke="#263238" stroke-width="1.0631" stroke-miterlimit="10"/>
<path d="M360.837 111.199L375 118.639L373.404 78.696L339.557 100.048L353.72 107.47L343.071 127.746C341.187 127.753 339.359 128.384 337.872 129.539L319.119 120.826C319.119 118.534 318.209 116.336 316.589 114.716C314.968 113.095 312.77 112.185 310.478 112.185C308.187 112.185 305.989 113.095 304.368 114.716C302.748 116.336 301.837 118.534 301.837 120.826C301.836 122.064 302.106 123.288 302.626 124.411L278.047 151.052C277.265 150.8 276.449 150.667 275.627 150.657C275.213 150.672 274.799 150.714 274.39 150.783L239.055 106.125C239.563 104.999 239.82 103.775 239.808 102.54C239.808 100.248 238.897 98.0501 237.277 96.4295C235.656 94.809 233.459 93.8986 231.167 93.8986C228.875 93.8986 226.677 94.809 225.057 96.4295C223.436 98.0501 222.526 100.248 222.526 102.54C222.544 103.43 222.695 104.312 222.974 105.157L182.619 146.247C181.671 145.9 180.67 145.718 179.661 145.709C177.956 145.713 176.291 146.222 174.875 147.171C173.459 148.121 172.357 149.469 171.707 151.045C171.057 152.621 170.889 154.354 171.224 156.026C171.558 157.697 172.381 159.232 173.588 160.436C174.794 161.64 176.331 162.46 178.003 162.791C179.675 163.123 181.408 162.951 182.983 162.298C184.558 161.644 185.903 160.539 186.85 159.121C187.797 157.704 188.302 156.037 188.302 154.332C188.298 153.618 188.202 152.907 188.015 152.217L228.711 110.661C229.506 110.911 230.333 111.044 231.167 111.055C231.696 111.054 232.224 111.006 232.744 110.912L267.9 155.48C267.265 156.752 266.952 158.161 266.991 159.582C267.031 161.004 267.42 162.393 268.125 163.628C268.83 164.863 269.829 165.905 271.033 166.661C272.237 167.418 273.609 167.865 275.027 167.964C276.446 168.063 277.867 167.811 279.164 167.229C280.462 166.647 281.596 165.754 282.465 164.63C283.335 163.505 283.914 162.182 284.15 160.78C284.386 159.378 284.273 157.939 283.82 156.591L309.026 129.288C309.506 129.373 309.991 129.421 310.478 129.431C312.191 129.433 313.865 128.921 315.283 127.961L334.465 136.925C334.539 138.255 334.92 139.55 335.578 140.708C336.236 141.866 337.153 142.856 338.258 143.6C339.363 144.344 340.625 144.822 341.946 144.997C343.266 145.172 344.609 145.038 345.869 144.606C347.129 144.175 348.273 143.457 349.209 142.51C350.145 141.562 350.849 140.411 351.266 139.145C351.683 137.88 351.8 136.536 351.61 135.217C351.42 133.899 350.927 132.642 350.17 131.547L360.837 111.199Z" fill="#263238"/>
</svg>
